<?xml version="1.0" encoding="UTF-8" standalone="no"?>
<!-- Generator: Adobe Illustrator 16.0.0, SVG Export Plug-In . SVG Version: 6.00 Build 0)  -->

<svg
   xmlns:dc="http://purl.org/dc/elements/1.1/"
   xmlns:cc="http://creativecommons.org/ns#"
   xmlns:rdf="http://www.w3.org/1999/02/22-rdf-syntax-ns#"
   xmlns:svg="http://www.w3.org/2000/svg"
   xmlns="http://www.w3.org/2000/svg"
   xmlns:sodipodi="http://sodipodi.sourceforge.net/DTD/sodipodi-0.dtd"
   xmlns:inkscape="http://www.inkscape.org/namespaces/inkscape"
   version="1.1"
   id="Layer_1"
   x="0px"
   y="0px"
   width="1000.116px"
   height="560.795px"
   viewBox="-117.5 -65.886 1000.116 560.795"
   enable-background="new -117.5 -65.886 1000.116 560.795"
   xml:space="preserve"
   inkscape:version="0.91 r13725"
   sodipodi:docname="Universal_Studios_2013_Print_2.svg"><metadata
   id="metadata4199"><rdf:RDF><cc:Work
       rdf:about=""><dc:format>image/svg+xml</dc:format><dc:type
         rdf:resource="http://purl.org/dc/dcmitype/StillImage" /></cc:Work></rdf:RDF></metadata><defs
   id="defs4197" /><sodipodi:namedview
   pagecolor="#ffffff"
   bordercolor="#666666"
   borderopacity="1"
   objecttolerance="10"
   gridtolerance="10"
   guidetolerance="10"
   inkscape:pageopacity="0"
   inkscape:pageshadow="2"
   inkscape:window-width="1366"
   inkscape:window-height="705"
   id="namedview4195"
   showgrid="false"
   inkscape:zoom="0.65258384"
   inkscape:cx="555.36578"
   inkscape:cy="169.44652"
   inkscape:window-x="-8"
   inkscape:window-y="-8"
   inkscape:window-maximized="1"
   inkscape:current-layer="Layer_1" />
<g
   id="g4137"
   style="fill:#000000">
	<path
   fill="#005395"
   d="M393.642-49.847c-1.334-0.435-3.854-1.319-5.289-1.043l-0.42,0.145l0.813,0.405l-1.942-0.291l-0.014,1.203   l0.145,0.262c1.984,0.507,3.912,1.26,6.693,0.941v-0.145l-2.638-1.26l-0.275-0.015v-0.13c1.826,0.362,3.361,1.159,4.595,1.985   l0.564-0.391l-0.726,1.739c-2.969-0.478-5.188-1.55-6.333,1.752l0.972,0.827l-0.711,0.246l-0.145,0.812   c1.188,1.087,1.87,1.681,3.335,2.231l0.274,1.768l0.825,0.159l0.552,1.508l4.593,3.491l0.551,1.26l3.348,2v0.405   c2.202,1.029,5.593,0.926,7.446,2.043l0.131,0.68c1.913,0.522,3.84,1.029,5.752,1.579l0.436-0.13l-0.132-0.956l2.244-2.797   l-0.405-1.796c1.58-0.203,2.087-1.072,3.377-1.391l-0.682-1.261l0.827,0.043l0.436-0.419l-1.263-1.13l-0.289-0.014v-0.131   l2.391,0.217l0.288-0.131l-0.563-0.708l0.146-0.131c1.057,0.595,1.722,0.652,3.375,0.681l0.275-1.087l0.693-0.115l-0.693,1.072   l0.13,0.274c3.261,0.739,5.521-0.55,8.693-1.057v-0.812c3.753-1.102,9.099,1.217,12.75,0.927   c1.115-0.102-13.418-9.373-28.586-13.098C406.855-52.643,393.279-50.326,393.642-49.847 M420.012-35.532l-0.422-0.289   L420.012-35.532 M253.001,259.557c1.651,2.767,3.173,6.562,5.361,8.807c4.52,4.663,11.967,7.16,14.808,13.172   c1.389,1.334,2.751,2.681,4.112,4.028l-0.246,1.88c0.246,1.899,1.072,4.492,0.783,6.492l-0.376,3.041l0.449,1.87   c-0.333,1.883-1.159,3.84-1.188,6.231h-0.972l-0.131,1.999h0.726l-0.52,3.783l0.463,3.736l-1.085,1.435l0.274,1.436   c-0.218,2.551-0.725,4.751-1.448,6.201c-0.753,1.581,0.027,3.1-1.333,4.029c0.217,1.997,0.899,3.013,0.753,5.172l-0.986,0.142   c-0.318,4.722,2.043,7.263,0.552,10.752l0.591,1.998c-1.172,3.118-2.578,6.072-2.823,9.724l-0.421-0.291l0.016,1.854l-1.262-0.406   l-0.13,0.13c0.26,2.594,1.521,5.377,2.579,7.534c-0.115,3-1.882,3.898,0.349,7.273v0.552l-0.711-0.422   c-0.45,1.349,0.304,2.826-0.086,4.392l1.825,1.001l0.421-0.133c0.303-1.491,0.174-3.273-0.609-4.417l0.276-0.275l0.984,0.434h0.132   l-0.276-0.579l0.276-0.552l0.709,0.843l-0.419,0.565l0.174,2.422l0.694,0.563c-0.391,2.421,0.059,4.101,0.044,6.65h-0.275   l-0.436-3.114l-1.97-1.565l-0.811,2.551l1.116,1.144l-0.117,1.972h-0.986v0.13l0.421,0.868l-1.102,0.841v0.581l1,0.549l0.551-0.564   l2.508,1.42l-0.552-0.146l0.434,0.567l-0.418,1.404l-1.391-0.553v0.146l0.419,0.407l-0.695,0.418   c0.725,1.392,0.912,3.492,1.84,4.667l1.956,0.97l-1.102-0.261v0.131l0.419,1.696l0.696,0.275l0.55-1.262l0.436,0.986h-0.566   l-0.131,0.13l0.71,2.406l1.68-0.565l0.827,0.565l-0.276,0.552l-1.403-0.421l-0.131,0.291l2.113,1.955l-0.29-0.564l2.374,1.972   v0.143l-2.23-0.97l2.797,1.81l-0.131,0.421l6.854,3.767l-0.16,0.566c1.377,1.259,5.651,2.854,7.709,3.375v-0.158l-0.986-0.957   l2.492,0.464l0.014-0.059l0.073,0.071l0.913,0.48v-0.552l1.942,0.276h0.143l0.146-0.276v-0.405c-3.841-0.478-5.072-3.767-8.1-4.637   l0.391-0.565l-2.782-1.813l-0.302-0.158l0.434-0.261l2.1,0.841v-0.146c-1.145-1.419-2.912-2.39-3.101-4.781l0.131-0.261   l1.956-0.434l0.261-2.26l3.491-1.813l0.117-2.129c-2.317-1.479-5.665-1.988-4.927-5.363c1.044-0.795,2.507-1.1,3.897-0.549h0.565   l-0.434-0.567l0.984-0.723l-0.449-2.393c0.594-0.855,1.102-1.246,2.507-1.273l-1.681-1.29l-0.274-0.146l0.97-0.391l1.406,1.552   l1.116,0.131l0.434-0.421l-0.448-1.695l-0.29-0.434l-1.521,0.13l0.694,0.579v0.161l-0.97-0.307l-1.404-0.985l-0.871-3.549   c1.058-1.289,3.462,1.32,4.912,1.695l3.347-0.13l0.668-1.565l-0.552,0.291l-0.565-0.579c0.638-0.973,1.637-2.058,1.087-3.391   l0.566,0.261h0.144l-0.276-0.84c1.985,0.824,10.924,2.112,13.417,0.71l3.449-3.536l-0.031-1.985   c-1.159-0.407-1.722-0.492-1.81-1.987l1.101-1.013c-0.579-2.507-3.115-2.739-4.229-4.694l0.552-0.727l0.417-0.142l0.987,1.577   l2.681,0.579l2.81,2.436h2.363l2.259,0.985c2.84-0.335,3.304-1.64,4.998-2.826l2.927-1.274l2.216-2.854   c1.856-0.784,3.71-1.608,5.58-2.392c2.202-1.463,3.362-4.128,5.418-5.693c2.58-1.971,5.81-2.349,6.809-5.956l-0.564-0.144   c0.376-1.391,0.493-3.231,1.231-5.131c0.608-1.55,10.475-6.533,12.995-5.78l1.694,1.289l0.262-0.985l-0.565-0.143v-0.161   l3.782-1.782v-0.71v-0.418c2.622-0.029,7.635,1.014,10.112,2.216l0.681-0.566c-0.144-2.201,2.565-1.332,4.202-2.114   c1.072-0.812,1.175-3.434,2.798-4.23c2.622-1.32,2.478-2.116,4.33-3.362l2.073-1.273c1.883-3.016,0.608-4.361,4.478-5.78   c0.651-2.102,1.158-3.74,2.375-5.219l1.797-2.129c0.666-1.854,0.274-3.403,0.985-5.099c0.753-1.841,2.347-3,2.506-5.375   c1.738-0.9,3.259-0.58,4.911-1.739c2.377-2.116,4.755-4.187,7.128-6.289l2.55-0.52l3.217-2.478   c3.885-2.505,7.042-4.709,8.549-9.605l0.132-2.839c0.419-1.785,2.521-13.33,2.478-13.33   C333.297,258.28,253.001,259.557,253.001,259.557 M285.528,403.471l-0.274-0.273l0.13-0.134l0.55,0.276L285.528,403.471z    M286.644,404.731l0.842-0.552l0.417,0.146h0.292L286.644,404.731 M290.426,408.934l-0.132-0.275h0.29L290.426,408.934    M292.527,406.427v0.13l-1.261,0.289v0.131l0.694,1.003l-1.246-1.552l-0.302-0.144l-0.407,0.985l-0.406-0.158l-0.451-2.783   l0.985,1.521L292.527,406.427 M291.266,404.326l0.115,0.275l-0.55,0.288l-0.418-0.434l-0.277-0.13l0.421-0.146L291.266,404.326    M304.406,370.277l0.697,1v0.16L304.406,370.277 M344.105,352.977v0.726l-3.071,1.261l-0.71-0.288v-0.146   c1.404-0.971,3.158-1.856,3.895-3.552l1.957-0.272l0.015,1.289L344.105,352.977 M356.204,343.329l0.13-0.434l0.132,0.158   L356.204,343.329 M356.464,342.619l0.146-0.421h0.143L356.464,342.619 M382.181,328.856l0.132-0.582h0.565L382.181,328.856    M257.261,55.833c1,0.826,3.969-0.869,5.419-0.898l2.767,4.36c1.16,2.637-2.072,3.984-1.723,6.013l0.289,0.145l0.276-1.117   l0.29-0.145l0.681,0.666l-1.55,1.173l0.276,3.187l0.71,0.246l0.26-0.55l0.131,0.262l-0.97,1.695l0.565-0.146l0.26,1.537   c0.059,2.159,2.29,2.145,1.247,4.434l3.911,0.464c-0.029-1.724,2.188-3.551,2.956-5.246c0.957-2.158,0.044-5.129,0.044-7.823   l0.84-0.291c-0.303-1.984-0.624-3.984-0.941-5.968c0.694-7.621,6.782-9.461,12.851-11.287c2.884-0.855,1.824-3.332,7.054-2.29   c1.335-2.491,5.783-1.998,8.361-2.636l0.13-0.274l-0.696-0.841v-0.131l3.68-0.812l0.71-1.116l-2.521-1.101v-0.131l2.667,0.419   l-0.017,1.087c0.116-0.042,0.407-2.926,0.493-4.404l-0.854-0.274l-0.131-0.682l1.436-2.607l0.042-3.289l1.999-1.782   c-1.593,2.261-0.782,2.274-1.333,4.941l1.274,0.405l-2.129,2.056l-0.158,0.291l0.694,0.26c0.812-1.709,4.1-2.811,5.563-5.187   l-0.811-2.753l1.971,1.391l-0.579,0.681v0.145c2.174,0.274,5.115-2.55,6.127-4.086l-0.421-0.535l-0.143-0.275   c2.55-0.347,6.144,0.42,8.925,0.103l-0.696-0.826c-2.129,0.26-4.027-0.579-6.085-0.073c2.479-1.984,10.112,0.769,13.459-0.492   c0.377,0.87,1.146,0.825,2.811,0.87l0.565-0.797l-0.406-0.696l-0.869,0.798l-1.13-0.146c-0.203-0.854,0.115-2.014-1.376-2.231   V19.25l1.983-0.507l-0.549-0.826l3.853-2.665c2.231,0.448,3.637,0.376,5.811-0.826l0.274,0.812c2.752-0.202,5.348,0.043,8.23-0.738   l-0.42-0.841l2.274,0.624c2.131,0.45,6.288-0.015,8.084-0.593l0.275,0.274l-1.985,0.507l-0.144,0.26l2.245,0.479   c-2.695,0.419-5.374,0.855-8.084,1.26l-0.146,0.274l1.001-0.246l-0.567,0.26c-0.681,0.826-0.883,0.869-0.897,2.317l0.869,0.029   l1.26,1.276c1.957,0.101,3.796-1.203,5.969-1.319l0.725-0.956l0.276,0.42l0.577-0.536l1.407,1.144   c1.203-1.231,8.707,0.333,10.924-0.291l0.274,0.015l-1.694-0.624l0.723-0.536c1.738,0.608,3.61,0.231,5.941,0.246l0.015-0.406   l-2.115-1.593v-0.16l1.161-1.317l-0.29-0.84l-0.855-0.188c-1.406,0.724-4.594,1.462-4.723,3.419l-1.522-1.028   c-3.243,0.347-4.506-1.305-7.243-1.608l-0.551-0.71l0.564,0.014l0.146-0.291l-2.534-1.028l-1.263-2.217l0.727-0.538l-1.552-0.462   V8.728c1.478-0.232,2.159-1.029,3.565-1.55l0.275-0.538V6.495c-1.435,0.436-2.696,0.19-4.824,0.131l-2.088-1.55l-0.143-0.291   c1.912,0.188,2.593,1.029,4.245,1.217c1.464-0.174,2.927-0.348,4.39-0.536l0.015-0.42l-0.131-0.812l0.536,0.145V4.248   c-3.418-4.622-15.532-2.97-20.764-2.057c-2.099,0.376-3.548,2.346-6.389,2.317c1.218-1.16,8.634-3.941,10.954-4.665l4.94,0.261   l1.275-1.333c1.927-1,4.752-0.624,7.229,0.058c3.261,0.927,6.318,1.217,9.591,2.362c1.986,0.667,8.07,3.159,10.171,2.81   c1.607-0.246,3.085-0.738,4.535-1.333c3.42-1.391,10.244,2.115,12.591-0.449l-0.144-0.709l0.29,0.159l0.462-3.695l-2.391-0.913   l0.117-0.565c-1.449-0.086-1.563-0.436-2.535-0.377c-0.274-1.652-1.753-2.246-3.507-2.463V-6.49l3.666,0.435l-2.376-2.029   l-3.1-0.667l-0.42-0.841l-2.683-0.767l-1.664-1.419l0.145-0.681l-3.666-2.305l0.725-0.26l0.159-2.16l-0.985-0.436l0.29-1.622   c-1.26-0.521-2.65-1.029-2.492-2.521l-0.71-0.043c-0.824-1.276-4.072-5.361-3.984-6.708c-3.449,0.927-7.896,6.461-12.577,2.68   c-0.783,0.058-1.317-1.144-2.797-1.391l-0.13-1.203l-0.985-0.146c0.435-1.145,0.871-1.333,0.769-2.81l1.565-0.652l-0.421-0.667   l-1.274,0.507c-0.9-1.014-2.97-1.493-4.608-1.927l-0.13-0.276v-0.13l0.709-0.275v-0.13c-1.085-0.956-3.332-2.637-4.709-3.116   l-3.519,0.101c-2.941-0.984-5.651-2.129-8.65-2.029l-0.842,0.783l-0.174,0.521l0.696,0.536l-2.566,1.317l0.928,2.246l-5.084,1.841   l-0.451,0.767c1.782,0.595,3.29,1.926,3.418,4.144c-1.521,3.246-4.896,3.782-8.969,4.463c-1.446,0.042-2.912,0.071-4.36,0.116   h-0.291l0.812,1.738c-0.781,1.434-2.288,3.172-1.23,4.796l-2.724,1.317l-0.016,1.203l-0.564,0.131l-0.536-1.072l-2.564,1.072   l-1.377-0.667c-0.462-2.217-1.883-3.507-2.811-5.594l1.856-1.985l-0.086-1.072l2.289-2.26c-2.884-0.231-11.244-2.796-12.925-4.405   l-1.608-2.462l-3.868-1.797c-1.446,0.014-2.897,0.044-4.345,0.057h-0.26l2.492-3.824l-2.927-0.319l0.028-0.667   c2.753-3.172,11.547-6.446,15.299-6.187l-0.535-0.636c1.362,0.1,2.868,0.291,4.331,0.086l-0.087-1.29h-0.276v-0.146   c2.16,0.652,9.521,0.566,12.911-1.159l0.016-0.493c1.447-0.318,2.897-0.624,4.362-0.956h0.275v-0.102l-0.973-0.407l-0.131-0.262   l2.941,0.246l3.017,2.346l0.144-0.405l0.143-0.116l-0.58,0.116l-0.927-1.029v-0.131l1.377,0.667l-0.101-1.174l1.65,1.16v-0.391   c2.377-0.61,4.637-0.522,6.463-1.059l-1.086-1.172c0.101-0.073-13.084-7.317-28.44-7.085c-9.854,0.16-45.451,12.374-73.574,26.573   c-21.458,10.837-37.96,24.414-38.975,25.398c-8.578,7.461-16.822,16.605-21.167,27.731l-1.479,1.724l-2.855,7.447l1.217,0.116   c-0.246,1.898,0.883,1.927,0.376,4.26c-0.753,3.36-3.159,7.461-4.173,11.141l-0.797,3.607c0.246,1.232,0.724,2.927,0.246,4.565   l-1.594,2.738l-1.579-0.029l-0.131,0.029c-0.203,1.884,0.478,3.014,0.378,4.68l0.652-0.246c1.13,2.898,0.594,6.144-1.594,8.201   c0.652,2.768,2.1,4.318,1.565,8.549v0.117l0.274,0.102c2.506-2.607,1.869-2.289,2.114-5.637l-0.246-0.927l-0.667,0.797   l-0.145,0.029c-0.333-2.146,1.826-7.563,2.275-9.825c0.26-1.492-0.521-4.071-0.115-5.839c0.927-4.129,1.405-13.112,4.839-15.705   l0.536,0.883l0.521-0.347c0.726,2.462-2.274,6.07-1.912,9.301l-1.593,1.752l0.391,0.348l0.812-0.796l0.376,4.26l0.407,0.073   l0.26,0.246c-0.45,0.941-0.825,1.434-0.812,2.898l0.667,0.318l-0.405,1.724l0.666-0.086c0.043,1.854-0.709,2.42-1.593,3.694   c0.202,1.695,0.984,2.146,1.71,3.391l-0.667,1.768c1.348,1.811,3.072,14.126,0.521,15.953l-0.29,1.579l-1.319,0.739   c-1.941,4.767,2.275,6.014,2.377,9.838l0.898,0.681c0,0,15.605-0.58,24.876-0.783l-1.144-0.696l-1.87-11.127l0.941-1.507   c-1.376-2.941,0.681-6.041,1.912-8.708c0.956-2.348,1.898-4.651,2.87-6.984c0.869-1.086,2.592-0.796,3.129-2.811   c0.334-1.291-0.218-2.521,0.434-4.201c0.609-1.522,2.276-2,2.203-3.956l2.579-1.333l0.435-0.725l-0.145,0.841l0.811-0.348   l0.551-0.754l-0.405-0.652c2.419,0.262,4.187-0.681,6.303-1.912l0.696-1.289l1.1-0.783l0.131,0.131l-0.55,0.595l0.536,0.26   l4.128-0.595l5.07,1.725l0.407-0.029v-0.551l-0.942-0.086l-0.146-0.377l1.101-0.362l1.362,1.854l-0.274,0.16l-0.274,0.419   l1.362,1.029l1.942-0.812l0.26,0.956l1.681-1.348l1.782,1.84l0.405,0.246h0.13l0.565-0.71l-1.376-1.319l-0.276-0.26l1.521-0.783   l0.16-1.246l-1.101,0.624h-0.145l-0.276-0.391c2.146-1.405,4.71-1.043,6.926-0.638l0.421-0.984l0.435-0.319l-0.029,1.812   c3.129,0.378,5.434-0.855,7.752,1.608L257.261,55.833 M325.473,22.828l0.304-0.146h0.42l-0.725,0.291L325.473,22.828    M378.428,16.423l0.276,0.015l-0.434,0.261L378.428,16.423 M377.573,16.815l0.697,0.028l0.143,0.419v0.146l-1.709-0.073   L377.573,16.815 M366.36,15.859l-2.55,0.333l-0.42-0.291l0.144-0.535L366.36,15.859 M396.988-3.904l0.566,0.174v0.131l-0.435,0.262   L396.988-3.904 M386.832-6.468l0.999-0.246c1.363,0.188,2.71,0.376,4.086,0.565c-1.724,0.145-3.564,0.391-5.506,0.478   L386.832-6.468 M331.021,21.394l-0.143,0.42L331.021,21.394 M176.386,38.404l0.261-0.45L176.386,38.404 M177.457,37.287   l-0.145,0.014c0.275-1.449,0.871-2.492,1.362-4.071C179.646,34.982,178.109,36.187,177.457,37.287 M200.843,85.274v0.131   l-0.521,0.057v-1.116L200.843,85.274 M226.878,51.514l0.274-0.565L226.878,51.514 M241.469,51.847h-2.346l1.116-1.172l1.231,1.029   L241.469,51.847 M349.234-42.82c1.752,0.262,4.071,0.493,5.997,1.376c1.941,0.87,2.434,2.086,4.593,2.434l-1.419-0.015l2.217,1.493   l-0.55,0.246l1.665,1.232h0.55l-0.536-0.667v-0.131c4.044,1.305,7.753,4.172,12.418,4.898l0.578-0.376v-0.145   c-1.347-1.796-4.592-3.782-6.823-4.68l-0.116-0.536l2.636,1.377l0.016-0.536c2.492,1.493,5.403,3.245,7.926,4.724l0.709-0.117   l0.291,0.015v-0.144l-1.957-1.377l1.117,0.42h0.143l-0.417-1.086l0.158-0.262l0.406,0.55l1.001-0.667l0.694,0.84h0.131l-0.26-0.551   l0.97,0.029v-0.29l-2.65-1.391l-0.133-0.274l0.855-0.117v-0.145c-0.768-0.624-3.26-2.622-5.028-2.362l-1.361-2.159l1.116,0.015   l0.144-0.262l-0.55-0.55c1.84,0.131,3.434,1.622,5.027,1.681c-0.564,1.855,3.043,2.347,4.303,3.332l1.563-0.507l-0.434-0.276   l0.434-0.521l2.117,0.159l-0.017,0.55l0.986,0.015l-0.419-0.551l0.564,0.015l0.435-0.116l-0.564-0.825l2.795,0.072   c-0.347-1.203-1.926-1.681-3.347-1.579l0.437-0.391l-1.406-0.043c-0.465-0.188-0.87-1.043-2.348-1.1l0.537-0.276l-2.639-1.117   l-0.275-0.274l0.565-0.246c-1.506-0.304-1.854-0.725-2.797-0.189c-0.854-0.695-0.795-1.057-2.231-1.245l0.291-0.377l-3.348-0.869   v-0.131l0.842-0.116l-0.116-0.812l3.071,0.841l0.26-0.246l-2.492-0.985l0.144-0.392l1.537,0.42l0.144-0.131v-0.391   c-1.232-0.927-1.537-1-3.493-0.855l1.42-0.507v-0.131c-1.448-1.072-3.52-0.536-4.998-1.391l-1.522-1.608l-5.287-1.348l0.29-0.405   c-1.347-0.607-2.696-1.043-4.159-1.738h1.116l0.014-0.13c-0.667-1.043-6.982,1.608-8.185,3.187l1.767,2.187l-0.289,0.391h-0.275   l4.027,0.551l0.144,0.274l-1.404-0.015h-0.275l2.231,0.391l0.406,1.072l-1.824-0.291l3.2,1.218l0.146-0.521l-1.407-0.261   l0.175-0.797l2.349,0.927l0.666,2.129l-6.607,0.753l-0.146,0.246l1.376,1.333v0.145c-1.564-0.448-3.215-0.071-4.635-0.303   c-3.072-0.507-5.375-2.145-8.389-0.304l0.13,0.376C344.801-42.472,347.48-43.096,349.234-42.82 M368.474-43.574l-0.434-0.26   L368.474-43.574 M359.912-49.629l0.405,0.274L359.912-49.629 M363.723-44.819l1-0.522c1.318,0.319,1.029,1.059,2.781,1.103   l-0.29,0.521l0.538,0.421c-1.655-0.291-2.217-0.436-4.058-0.319L363.723-44.819 M361.563-42.458l2.363,1.493l0.274,0.406   c-1.071-0.362-2.244-0.521-3.634-0.696l-0.131-0.26l1.26,0.015L361.563-42.458 M355.812-48.194l0.841-0.798l0.028-0.391   c-1.347-0.333-2.362-0.696-4.187-0.667l-1.84,0.638l-0.146,0.666v0.131L355.812-48.194 M336.934-44.067l-2.507-0.507l0.449-1.058   l-3.985-2.362l-0.811-1.55l-0.29,0.376c-2.55-0.231-5.476,1.043-6.23,2.782l-3.232,0.536l3.622,0.362l-0.564,0.405l-0.45,0.783   c2.042,0.362,5.36-0.203,6.751-1.086l2.363,0.667l-0.711,0.274c1.304,1.131,3.621,1.16,6.129,1.043L336.934-44.067 M329.211-47.978   l0.303-0.782l0.392,0.376h0.291L329.211-47.978 M379.153-44.863l-0.146,0.274h0.276L379.153-44.863 M325.4-42.603l0.116,0.912   c2.101-0.217,4.058-0.115,5.91-0.68l0.145-0.247l-3.897-0.652L325.4-42.603 M344.468-42.849l-0.971-0.274l-0.014,0.405l0.985,0.014   V-42.849 M340.947-42.082l0.97,0.812l1.246,0.131l0.146-0.131l0.014-0.407l-2.231-0.667L340.947-42.082 M345.264-41.126h0.564   l0.146-0.26l-0.391-0.536l-1.405-0.291L345.264-41.126 M335.44-40.777l-1.404,0.536l-0.304,0.507l0.392,0.667l2.549-0.652   l0.436-0.52L335.44-40.777 M357.159-39.835l0.016-0.131l-0.42-0.015v0.26L357.159-39.835 M351.943-38.285l-1.68-0.696l1.117,0.681   L351.943-38.285 M337.151-36.547v-0.145l-1.117-0.116l0.29,0.261H337.151 M470.837-27.23l-0.681,0.102l0.42,0.464   c-1.551,0.291-3.449-0.738-5.041-1.116l-0.146,0.131l0.291,0.579l-2.246-1.231v0.145l0.855,0.884v0.131l-1.116,0.086   c-1.608-1.303-2.914-3.056-5.608-3.332l0.695,0.724l-1.116-0.479l-1.131,0.913l-0.144,0.291l5.476,1.362   c-0.912,0.652-1.868,0.377-3.375,0.116l-0.13,0.145l0.13,0.291c2.535,0.594,3.578,1.289,5.316,2.203l0.145,0.29l-1.405-0.362   l-0.132,0.145l0.276,0.58c3.825,1,13.112,5.65,16.356,1.97v-0.131c-1.678-1.088-4.1-2.667-5.172-3.941L470.837-27.23    M361.375-32.707l-0.274-0.014v0.274L361.375-32.707 M374.864-31.518v-0.131l-0.694-0.305L374.864-31.518 M375.285-31.244v0.131   l1.81,1.116l0.725-0.521l-0.434-0.812l-1.116-0.291L375.285-31.244 M365.272-30.375l-0.29,0.391l1.971,0.188l0.144-0.275   l-0.694-0.419l-0.696-0.16L365.272-30.375 M584.311,90.258l0.13,0.014c-0.694-1.448-1.361-2.898-2.058-4.332l0.407,0.595   l0.29,0.159V86.42l-1.102-2.203l0.246-0.116l0.985,1.057h0.132l-0.696-1.709l1.536,1.493c-0.71-1.521-2.549-4.651-4.127-5.361   l0.549-0.231c-0.493-1.753-3.143-3.348-3.434-6.013h0.13c0.246,1.478,1.291,1.101,1.928,1.696l0.132,0.014l-1.637-2.376   l0.811-0.638l2.07,1.044l0.246,1.276c0.146-1.695-0.042-3.825-0.289-4.434l-1.87-3.16c-2.145-3.491-3.666-6.403-5.245-10.459   c-0.361-1-13.17-20.994-29.44-36.237C527.141,4.313,506.799-6.729,507.09-6.8l-1.537,1.086l0.304,1.464l-1.26,0.608l1.724,1.884   l0.291,1.448c1.303,1.912,3.97,2.912,4.997,5.246l1.115-0.362l0.58,1.724c0.695,0.883,4.361,2.984,5.766,2.158l0.391-2.203   l0.827-0.362l-0.275-0.652V5.108c3.911,1.854,5.854,6.707,10.012,8.388l0.579,1.464l-1.103,1.129l2.956,2.391l-0.969,0.072v0.131   l1.116,0.985l0.841,0.042v-1.058l-1.564-1.536l0.275-0.507l-0.855-0.957l1.565,1.797l1.664,0.086l0.132,0.015l-0.015-0.406   l-1.103-1.377l0.133-0.652l1.521,0.233l-0.58-1.087l5.608,5.463l-0.393,1.55l-0.682,0.202l-2.361-0.014l-0.146-0.667l-1.261-1.116   l0.016,0.796l-0.841-0.173l-0.391,1.55l-0.682-0.174l-0.449-1.334l-0.694-0.449l0.274,0.55l-2.797-1.593l0.146-0.262l-1.261-0.595   l-0.145-0.274l0.145-0.232l2.782,1.709c-0.579-1.275-1.854-3.101-3.362-2.681l-0.855-1.986l0.552,0.291l0.132-0.638   c-1.317-1.477-3.101-2.303-3.841-4.346l-0.813,0.348l0.293,1.173l-0.552-0.014l-0.694,0.377c0.462,2.449,5.533,6.259,5.258,7.404   l0.984,0.174l1.84,2.593l-0.275,0.768l-2.086-0.362v0.667l-1.928,0.173l-0.275,0.638l0.552,0.972l0.999,0.043l0.564,1.608   l-0.679,0.102l-0.161-0.015l0.595,1.739l-1.131-0.174c-0.462-1.391-0.953-2.767-1.434-4.173l-0.275-0.145h-0.145   c0.464,1.854,2.027,4.853,0.911,5.882l-2.766,1.623l1.145,2.594l-1.521,0.768l0.014,1.348l-0.418,0.406   c-1.725,0.362-3.637-1.145-4.896-1.579l-0.146,0.131c0.753,1.144,1.841,1.841,2.274,3.303l0.406,0.392l0.015,0.13l-2.522,0.26   l-1.68-1.231l-3.23,1.116l-0.277,0.015l1.841,1.623l-0.824,0.16c1.49,1.348,3.634,1.014,5.749,1.769l6.725,6.477l-0.682-0.565   l-0.158,0.131c1.68,2.274,3.491,5.608,3.491,9.925c-2.405,0.898-8.099-0.709-11.286-1.087l-4.217,0.407l-1.84-0.507l-0.826,1.347   l-1.854,0.825l-0.566,0.319c0.074,1.435,0.914,1.319,1.117,2.405l0.709-0.333c0.291,2.435,1.682,4.101,2.508,6.346   c0.736,2.015,0.318,7.954-0.115,9.91l1.521,1.608l0.854-0.478c0.695,1.869,1.246,3.81,1.13,6.737l3.65,0.057l1.553-0.971   c2.419-1.088,3.577,4.637,6.185,5.1l2.71-2.97c1.897-0.029,3.174-0.305,4.738,0.217l0.274-0.624l1.246,0.493l1.172-3.491   l1.538-0.246c0.026-0.855-0.536-2.086-0.103-3.492l1.145-1.912c-4.217-2.883-0.393-6.461-1.578-8.766l2.49-1.463l1.812-2.333   c-0.246-1.521-2.638-3.753-2.07-5.391l1.101-1.362c2.159,0.738,3.506,1.638,5.389,2.391c0.884-0.884,0.667-2.534,2.334-2.782   l0.406-1.913v-0.275c3.752,0.638,5.939,5.781,7.837,8.404l5.477,5.172l1.23,0.102l0.94,1.637c4.046,3.767,5.218,4.897,7,10.692   l-1.666,1c-1.363-0.043-1.363-0.188-2.203-0.883l-0.289,0.695l-0.536-0.479l-0.131-0.015l0.116,1.884l5.896,4.723l0.159,0.014   c-0.319-2.129-1.376-3.201-1.376-5.796l0.826,0.624h0.144l-0.419-3.434l0.564-0.796c-0.449-1.769-1.318-2-2.188-3.159l-0.825-3.187   l0.288-0.246l3.015,3.084c-0.724-3.043-3.724-5.651-6.301-6.925l-0.407-1.855l-2.332-0.796c-2-1.667-2.926-4.274-4.521-6.332   c-1.378-1.753-3.969-2.463-4.68-4.883l0.145-0.955l-1.378-1.927l1.104-0.87l0.549,0.043l1.912,3.507l0.275,0.174l0.146-0.971   l0.694,1.448l0.407,0.333l-0.552-1.305l2.479,3.565l3.419,2.855l-0.551-0.19l0.971,1.348l0.682,0.058l-0.682-0.624l0.26-0.115   l0.84,0.652l0.132,0.274l-0.825,0.218l1.219,0.376c1.549,0.768,4.041,3.406,4.939,4.825c0.795,2.043,1.563,4.071,2.315,6.115   c0.956,1.767,3.074,3.548,3.854,5.389l0.421-0.115l-0.017,1.419l2.204,1.565l-0.292,1.667c0.986,1.391,1.943,2.709,2.492,4.52   l0.408,0.318l0.13,0.015l-0.262-1h0.133l0.971,2.159l0.26,0.159l-0.26-1.13L584.311,90.258 M526.704,24.639l-0.146-0.16   l0.146-0.246l0.276,0.015v0.131L526.704,24.639 M513.359,78.435l-0.13-0.753l0.275-0.014L513.359,78.435 M528.08,23.756   l0.132-0.232h0.275L528.08,23.756 M538.179,22.48l0.854,0.333v0.131L538.179,22.48 M557.274,53.427l0.421,0.174v0.419   L557.274,53.427 M581.413,83.636l-1.229-1.231l0.535,0.174l0.985,0.797L581.413,83.636 M312.318-20.304l3.46,1.724h0.146   l-0.116-1.317l-2.781-0.667L312.318-20.304 M385.499-15.394l0.131,0.015l0.16-0.291l-0.71-0.159L385.499-15.394 M392.916-8.859   l-0.418-0.274l0.274,0.406l0.144,0.015V-8.859 M367.519,0.964c3.174,2,5.389,3.665,9.576,4.956l0.291-0.117v-0.42   c-2.231-1.927-5.983-4.477-9.722-4.694L367.519,0.964 M403.016,2.964l-0.146,0.405l0.42-0.391L403.016,2.964 M509.752,32.752   l2.247,0.376l0.261-1.624l4.636,0.421l0.42,0.014l-0.274-0.695c2.13,0.1,3.2,0.043,4.88-0.812l0.116-0.26l-0.274-0.812l-1.971-0.19   l0.813-2.391c-0.335-1.391-2.841-4.129-4.362-2.376l-0.42-0.131c-0.84-1.797-2.245-3.868-4.419-5.258l-2.551-1.088   c-2.26-2.174-3.332-3.897-6.809-3.912l1.116-0.796l-0.726-0.536l0.118-3.072c-1.246-1.245-3.579-0.927-5.248-0.564l-0.417-0.798   l0.969-1.347l-0.317-0.956c-1.449-0.305-2.855,0.333-4.218-0.131v0.956l0.305,1.217l-0.292,0.131l-0.564,0.274l0.868,1.348v0.144   l-1.854-1.333l-0.579,0.811l2.999,1.319l0.29,0.55l-0.694,0.434l0.435,1.479l1.42-0.145l0.145-0.696l-0.016-0.274h0.145   c0.245,1.521,1.057,2.564,1.463,4.187h0.578l0.132-0.26l-0.289-0.695l0.854,0.536h0.133l-0.422-1.348l1.146,0.783l0.027,2.057   l1.275,1.044h0.146l-0.304-0.521v-0.16l1.289,0.535v-0.535l1.972-0.407c0.953,1.145,0.549,3.057,2.839,2.667l0.737,2.289   l-3.375,0.029l1.001,1.216l-0.566,0.667l0.144,0.276l1.131-0.436l1.159,1.479l-1.824,1.391l-0.435,0.42l1.421,1.203   c1.505-0.796,2.866,0.204,4.534,0.768l1.1-0.55l-0.114,0.94l-2.812,0.015l-1.927,3.738v0.274l1.552,0.363L509.752,32.752    M497.669,14.99v-0.521l0.275-0.015l0.304,0.407L497.669,14.99 M402.582,4.586l0.145-0.376l-2.276-0.667l-2.535,0.014l-2.823,1.419   c-1.537,0.754-2.174,2.695-4.13,3.129l-0.016,0.957v0.146l-0.709-0.319l-1.855,1.448l0.855,0.738   c-1.145-0.246-2.623,0.479-3.954,0.667l0.246,1.391c2.346,0.579,11.823,2.479,12.604,3.289l-0.564-0.029l2.811,1.116l0.303-0.695   l1.841,0.783c-1.159,0.436-2.42,0.754-4.392,0.623l-0.158,0.551c2.984,1.159,5.376-0.246,7.94-1.029l0.565,0.738l-1.437,2.015   l0.58,0.724l1.971-0.608l-0.42,1.651l2.115,0.521l2.274-2.245l-0.145-1.131l-1.971,0.609l-0.145-0.579l1.552-1.159l0.146-0.276   l-0.146-0.144c-1.782,0.116-2.115,0.449-3.115,1.246l-0.275-0.566l-0.42-0.173l3.391-1.768l0.291-0.276l-3.116-0.564l-0.131-1.391   l1.55-0.754l-3.666-1.434l-0.97-1.291l-0.435,0.131l0.145,0.55l-0.855-0.029l-0.418-0.724l-0.565,0.407l-1.407-0.479l0.275-0.42   l-0.709-0.028l-0.276-0.275V9.456l1.695-0.058l0.017-0.13l-2.697-1.377l-2.549,1c0.42-1.391,2.868-2.638,4.274-2.984l0.565-0.667   l-1.145-0.479v-0.13l0.014-0.131l1.973,0.362L402.582,4.586 M490.222,8.57l0.971-0.854l-0.274-1.348l-0.739-0.131l-1.101,0.972   l0.71,1.086L490.222,8.57 M401.565,6.21l0.306-0.276l-0.29-0.014L401.565,6.21 M489.657,8.586l-0.566,0.26l1.146,1.636l0.434,0.131   l-0.434-1.783L489.657,8.586 M401.857,6.92l0.288-0.131V6.644l-0.694-0.159L401.857,6.92 M525.951,11.483l-0.421-0.407l0.292,0.391   L525.951,11.483 M493.222,11.121l0.145-0.291l-0.567-0.261L493.222,11.121 M490.671,10.888v-0.144l-0.418,0.014v0.291   L490.671,10.888 M492.946,11.933v0.145l0.146,0.131h0.143l0.145-0.407h-0.289L492.946,11.933 M492.524,12.237l0.017,0.406   l0.276-0.015L492.524,12.237 M386.702,9.715l-0.275,0.146l-0.161,0.405l1.987,0.218l-0.709-0.71L386.702,9.715 M406.072,11.266   l-0.144,0.536l1.146,0.043L406.072,11.266 M495.828,15.293l0.117-1.912l-1.115,1L495.828,15.293 M494.814,13.686v0.131l0.291,0.131   l0.144-0.131l-0.289-0.262L494.814,13.686 M369.634,14.323l1.129,0.725c1.305-0.233,1.116-0.913,2.984-0.854l0.145-0.146v-0.131   l-6.781-1.753l-0.42-0.681l-0.116-1.246l-0.42-0.145l-1.579,0.624l-0.145,0.291c1.493,1.305,2.854,2.101,4.928,2.898   L369.634,14.323 M498.871,20.828l-0.158-0.246l1.42-1.014l-0.016-0.666l-2.724-2.261l-2.68,0.333l0.274-0.565l-1.289-0.507   l-2.115,0.768l-0.55,1.55l1.694,0.217l-0.551,1.116l-3.853,0.058l0.565,0.84l-0.42,0.146l1.868,0.463l-0.983,1.028   c1.1,1.449,2.026,0.593,3.708,1.058l-0.694,1.594l0.014,0.826l-0.131,1l-1.158-0.057l-0.275,0.724l1.563-0.261l-1.001,0.638   c1.696,4.085,7.638-1.202,10.245-1.1C501.509,24.696,500.697,21.77,498.871,20.828 M408.188,14.814l-0.291-0.29l-0.145,0.407   L408.188,14.814 M535.63,17.857l0.303,0.681l0.957,0.319L535.63,17.857 M352.625,15.293l0.276,0.16l0.578-0.681h-0.42   L352.625,15.293 M502.116,19.829l0.145,0.391l0.695-0.145l0.131-0.391l-0.695-0.681L502.116,19.829 M344.251,15.641l0.288-0.261   l-0.406-0.435L344.251,15.641 M345.249,15.539l-0.274-0.014v0.274L345.249,15.539 M396.424,17.598l0.274,0.564l0.29-0.26   L396.424,17.598z M405.914,18.177l-0.436-0.029l-0.565,0.405l-0.145,0.407l0.42,0.014l0.726-0.378V18.177 M354.726,16.743h0.29   H354.726 M396.278,18.567l0.42,0.16l0.29-0.131l-0.564-0.319L396.278,18.567 M396.988,18.727v0.274l0.261-0.261L396.988,18.727    M526.429,25.132v0.405l0.29,0.015L526.429,25.132 M336.556,20.813l-0.274-0.015l-0.03,0.29L336.556,20.813 M333.558,22.537   l-0.71,0.274l-0.015,0.262l1.404,0.174l0.017-0.145L333.558,22.537 M329.718,22.755h-0.274H329.718 M328.022,23.132l0.131,0.014   l-0.406-0.29L328.022,23.132 M335.948,24.102h0.13l0.146-0.274l-0.842-0.29l-0.13,0.26L335.948,24.102 M304.928,40.938l-0.29-0.29   l-0.131,0.29H304.928 M173.53,51.587l0.132,0.274l0.145-0.029l0.536-2.029l-0.405-0.218L173.53,51.587 M223.023,53.052l0.565-0.305   l-0.274-0.116L223.023,53.052 M564.012,62.844l0.275,0.029l-0.275-0.449V62.844z M555.362,68.38l0.131,0.015   c-0.072-2.058-1.058-5.766-2.463-6.578l0.42,1.013l-0.825,0.493c0.027,1.783,1.274,4.085,2.463,4.752L555.362,68.38 M555.088,62.57   l-0.274,0.115v0.421l0.694,0.071L555.088,62.57 M167.142,70.828l-0.13,0.304l0.391,0.507l0.145-0.029L167.142,70.828    M555.768,68.988l-0.275,1.26l-1.116,0.043c0.102,1.607,1.739,3.159,2.318,4.505l0.405,3.072l1.782,0.985l-0.145-1.16l0.842,0.348   l0.131,0.015c-0.508-3.246-1.885-6.666-3.536-8.897L555.768,68.988 M578.4,72.886l0.419,0.303L578.4,72.32V72.886z M579.921,73.972   l0.133,0.014l-0.422-0.58L579.921,73.972 M578.95,76.015l0.406-0.405l-0.682-0.738l0.275,0.708l-0.55-0.478L578.95,76.015    M580.183,75.972l0.564,0.449v-0.55l-0.564-0.319V75.972z M575.921,77.71l-0.55-0.754L575.921,77.71 M581.559,79.854v0.419   l0.549,0.333L581.559,79.854 M578.125,81.824v1.131l0.391,0.462l0.421,0.174l0.145-0.291L578.125,81.824 M579.225,84.736   l0.536,0.463v-0.565l-0.68-0.478L579.225,84.736 M584.311,90.663l0.406,0.869l0.159-0.275L584.311,90.663 M377.834,328.521   l-0.42,0.291l0.29,0.273h0.682v-0.115L377.834,328.521 M378.964,328.971l0.276-0.288l-0.29-0.017L378.964,328.971 M269.228,356.209   h0.26H269.228z M268.576,360.613l0.274,0.146l0.145-0.146l-0.289-0.273L268.576,360.613z M274.01,374.131l0.131-0.146v-0.158   h-0.552L274.01,374.131 M270.272,376.811l0.274,0.434h0.55v-0.142L270.272,376.811 M271.258,379.795l0.014,0.435h0.42   L271.258,379.795 M272.532,382.059h0.29l-0.144-0.276L272.532,382.059 M299.509,412.018l-0.349-0.348l-0.085-0.014L299.509,412.018    M304.812,412.309l0.146-0.291l-1.826-0.272L304.812,412.309 M297.988,412.018l1.537,1.116L297.988,412.018"
   id="path4139"
   style="fill:#000000" />
	<path
   fill="#005395"
   d="M358.826-65.886c-105.58,0-196.206,64.068-235.064,155.462c35.86-63.865,111.709-140.481,234.891-140.379   C469.953-50.7,553.146,16.221,593.931,89.722C555.102-1.746,464.446-65.886,358.826-65.886"
   id="path4141"
   style="fill:#000000" />
	<path
   fill="#005395"
   d="M602.348,266.93c-33.104,101.232-126.15,179.963-244.087,179.963c-125.065,0-209.128-77.674-242.9-177.759   c35.15,93.233,130.701,160.097,243.073,160.097C471.692,429.23,567.881,361.325,602.348,266.93"
   id="path4143"
   style="fill:#000000" />
	<path
   fill="#005395"
   d="M-78.034,260.483c-25.471,0-38.987-16.313-39.133-47.204l-0.333-71.081l1.377-1.521l22.167-2.158   l1.174,0.391l0.493,1.117l0.319,70.225c0.072,15.461,5.969,23.299,17.489,23.299l2.795-0.146   c13.547-1.333,20.399-10.519,20.313-27.383l-0.333-70.226l1.376-1.522l22.284-2.172l1.158,0.391l0.522,1.116l0.318,71.094   c0.103,19.054-5.694,51.595-45.464,55.463C-73.759,260.367-75.933,260.483-78.034,260.483"
   id="path4145"
   style="fill:#000000" />
	<polygon
   fill="#005395"
   points="-2.214,250.328 -3.258,249.905 -3.751,248.807 -4.287,131.535 -2.88,129.999 20.764,128.362    22.082,128.97 72.214,195.155 71.909,126.218 73.328,124.711 92.468,123.378 93.613,123.769 94.091,124.885 94.64,242.17    93.222,243.691 73.574,245.052 72.228,244.445 18.098,172.712 18.445,247.457 17.026,248.995 -2.113,250.328  "
   id="polygon4147"
   style="fill:#000000" />
	<polygon
   fill="#005395"
   points="122.72,242.258 121.677,241.837 121.185,240.736 120.489,123.841 121.937,122.307 147.438,121.044    148.553,121.437 149.031,122.538 149.596,239.46 148.148,240.997 122.793,242.258  "
   id="polygon4149"
   style="fill:#000000" />
	<polygon
   fill="#005395"
   points="216.577,238.288 215.187,237.373 165.345,121.9 165.461,120.495 166.694,119.785 195.814,118.916    197.264,119.858 229.704,195.212 263.186,117.815 264.563,116.917 287.528,116.22 288.83,116.901 288.961,118.365 237.847,236.795    236.485,237.693 216.62,238.288  "
   id="polygon4151"
   style="fill:#000000" />
	<polygon
   fill="#005395"
   points="306.783,236.1 305.247,234.578 304.551,117.669 305.001,116.569 306.058,116.148 399.799,116.032    401.306,117.553 401.436,140.315 400.974,141.388 399.901,141.836 334.601,141.909 334.703,162.135 378.558,162.092    380.08,163.612 380.196,186.563 379.748,187.635 378.674,188.099 334.817,188.142 334.919,210.092 400.974,210.005    402.494,211.528 402.61,234.461 402.161,235.532 401.073,235.982  "
   id="polygon4153"
   style="fill:#000000" />
	<path
   fill="#005395"
   d="M532.543,239.634h-0.028l-30.323-0.897l-1.261-0.769l-25.63-44.175l-16.62-0.493l0.19,42.552l-0.464,1.104   l-1.115,0.418l-25.572-0.769l-1.479-1.507l-0.536-117.284l0.449-1.088l1.104-0.434l64.37,1.941   c21.341,0.624,33.643,14.243,33.759,37.323c0.102,22.226-11.823,31.511-22.587,35.352l27.063,46.42v1.564L532.543,239.634    M458.405,167.583l20.777,0.638l2.694,0.029h0.016c7.635,0,12.127-1.101,14.562-3.551c1.941-1.955,2.782-5.013,2.753-9.939   c-0.016-5.55-1.088-10.576-13.706-10.953l-27.21-0.812L458.405,167.583z"
   id="path4155"
   style="fill:#000000" />
	<path
   fill="#005395"
   d="M599.146,246.458c-1.623,0-3.259-0.044-4.94-0.131c-18.108-0.954-37.031-12.3-42.407-15.734l-0.694-1.274   l-0.13-27.052l0.795-1.346l1.579,0.073c16.387,10.938,32.063,18.036,40.9,18.517c8.418,0.449,13.938-0.784,16.722-3.564   c1.36-1.376,2.044-3.13,2.028-5.361c-0.016-2.652-2.725-5.215-8.533-8.1c-3.376-1.737-7.477-3.404-11.794-5.171   c-18.256-7.477-43.293-17.749-43.423-45.451c-0.044-9.245,2.869-16.879,8.665-22.689c7.446-7.505,19.43-11.316,32.903-10.62   c15.793,0.869,34.627,8.982,43.437,14.214l0.752,1.333l0.103,26.181l-0.784,1.348l-1.578-0.074   c-5.419-3.564-24.456-15.227-41.988-16.169c-6.215-0.333-9.302,1.317-10.663,2.68l-1.463,3.333   c0.015,2.839,2.811,5.723,8.549,8.809c3.461,1.855,7.866,3.709,12.546,5.68c17.997,7.563,42.669,17.937,42.771,42.841   c0.06,11.085-3.157,19.983-9.56,26.414C625.459,242.662,614.099,246.458,599.146,246.458"
   id="path4157"
   style="fill:#000000" />
	<path
   fill="#005395"
   d="M759.101,253.875l-0.115-0.015l-25.24-1.854l-1.333-0.987l-8.478-23.603l-41.03-3.013l-8.678,22.181   l-1.538,0.942l-21.153-1.534l-1.173-0.697l-0.131-1.389l45.319-114.91l1.554-0.957l17.646,1.305l1.317,1l44.452,121.471   l-0.203,1.45L759.101,253.875z M692.916,199.225l21.197,1.565l-10.416-28.717L692.916,199.225z"
   id="path4159"
   style="fill:#000000" />
	<polygon
   fill="#005395"
   points="849.609,262.265 849.467,262.265 776.762,255.557 775.37,254.037 774.691,135.347 775.196,134.216    776.371,133.825 798.336,135.852 799.712,137.375 800.161,231.377 849.64,235.927 851.017,237.432 851.146,260.729 850.639,261.86     "
   id="polygon4161"
   style="fill:#000000" />
	<path
   fill="#005395"
   d="M124.43,494.399h-5.013l-1.694-3.577h-8.36l-1.797,3.577h-4.217l8.968-17.98h3.52L124.43,494.399z    M111.13,487.257h4.882l-2.391-5.012L111.13,487.257z"
   id="path4163"
   style="fill:#000000" />
	<path
   fill="#005395"
   d="M167.562,494.909c-5.028,0-10.083-2.929-10.083-9.493c0-6.549,5.056-9.49,10.083-9.49   c3.274,0,6.201,1.305,6.751,1.565l0.435,0.188v4.072l-1.074-0.566c-0.505-0.261-3.201-1.608-6.113-1.608   c-4.23,0-5.346,3.682-5.346,5.839c0,2.175,1.116,5.826,5.346,5.826c3.217,0,4.636-0.726,5.752-1.333l1.55-0.769v4.202l-0.754,0.288   C172.619,494.199,170.75,494.909,167.562,494.909"
   id="path4165"
   style="fill:#000000" />
	<path
   fill="#005395"
   d="M198.408,494.909c-5.028,0-10.084-2.929-10.084-9.477c0-6.577,5.056-9.505,10.084-9.505   c5.042,0,10.098,2.928,10.098,9.505C208.506,491.98,203.451,494.909,198.408,494.909 M198.408,479.593   c-4.23,0-5.361,3.667-5.361,5.84c0,2.175,1.13,5.822,5.361,5.822c4.245,0,5.39-3.647,5.39-5.822   C203.798,483.26,202.653,479.593,198.408,479.593"
   id="path4167"
   style="fill:#000000" />
	<polygon
   fill="#005395"
   points="243.222,494.416 238.671,494.416 238.671,485.156 234.282,494.416 231.732,494.416    227.096,485.143 227.096,494.416 223.401,494.416 223.401,476.419 227.849,476.419 233.528,487.808 238.933,476.419    243.222,476.419  "
   id="polygon4169"
   style="fill:#000000" />
	<path
   fill="#005395"
   d="M268.186,494.909c-5.029,0-10.099-2.929-10.099-9.493c0-6.549,5.07-9.49,10.099-9.49   c3.274,0,6.201,1.305,6.751,1.565l0.421,0.188v4.072l-1.061-0.566c-0.505-0.261-3.215-1.608-6.113-1.608   c-4.23,0-5.361,3.682-5.361,5.839c0,2.175,1.129,5.826,5.361,5.826c3.217,0,4.622-0.726,5.751-1.333l1.552-0.769v4.202   l-0.769,0.288C273.242,494.199,271.373,494.909,268.186,494.909"
   id="path4171"
   style="fill:#000000" />
	<path
   fill="#005395"
   d="M308.376,494.399h-5.012l-1.695-3.577h-8.346l-1.812,3.577h-4.217l8.969-17.98h3.505L308.376,494.399z    M295.075,487.257h4.884l-2.39-5.012L295.075,487.257z"
   id="path4173"
   style="fill:#000000" />
	<path
   fill="#005395"
   d="M328.385,494.909c-2.462,0-5.332-0.914-7.114-1.813l-0.406-0.218v-4.17l1.071,0.578   c1.812,0.955,4.723,1.956,6.449,1.956c2.374,0,3.607-0.579,3.607-1.725c0-0.941-2.202-1.608-4.505-2.331   c-3.696-1.146-6.883-2.609-6.883-6.175c0-3.085,2.839-5.086,7.258-5.086c2.666,0,5.897,0.942,7.246,1.596l0.434,0.188v4.058   l-1.057-0.549c-0.957-0.509-3.985-1.64-6.623-1.64c-1.463,0-2.432,0.508-2.432,1.246c0,1.044,1.491,1.567,3.954,2.32l1.84,0.592   c2.768,0.943,5.591,2.317,5.591,5.288C336.816,491.228,335.731,494.909,328.385,494.909"
   id="path4175"
   style="fill:#000000" />
	<polygon
   fill="#005395"
   points="360.273,494.416 355.724,494.416 355.724,479.955 349.566,479.955 349.566,476.419    366.461,476.419 366.461,479.955 360.273,479.955  "
   id="polygon4177"
   style="fill:#000000" />
	<path
   fill="#005395"
   d="M409.593,494.909c-5.028,0-10.099-2.929-10.099-9.493c0-6.549,5.07-9.49,10.099-9.49   c3.275,0,6.201,1.305,6.753,1.565l0.418,0.188v4.072l-1.058-0.566c-0.506-0.261-3.216-1.608-6.114-1.608   c-4.23,0-5.361,3.682-5.361,5.839c0,2.175,1.129,5.826,5.361,5.826c3.217,0,4.623-0.726,5.767-1.333l1.536-0.769v4.202   l-0.768,0.288C414.65,494.199,412.781,494.909,409.593,494.909"
   id="path4179"
   style="fill:#000000" />
	<path
   fill="#005395"
   d="M440.439,494.909c-5.041,0-10.099-2.929-10.099-9.477c0-6.577,5.057-9.505,10.099-9.505   c5.043,0,10.1,2.928,10.1,9.505C450.538,491.98,445.481,494.909,440.439,494.909 M440.439,479.593c-4.23,0-5.36,3.667-5.36,5.84   c0,2.175,1.129,5.822,5.36,5.822s5.375-3.647,5.375-5.822C445.814,483.26,444.67,479.593,440.439,479.593"
   id="path4181"
   style="fill:#000000" />
	<polygon
   fill="#005395"
   points="485.121,494.416 480.572,494.416 480.572,485.156 476.183,494.416 473.633,494.416    468.996,485.143 468.996,494.416 465.302,494.416 465.302,476.419 469.749,476.419 475.443,487.808 480.834,476.419    485.121,476.419  "
   id="polygon4183"
   style="fill:#000000" />
	<path
   fill="#005395"
   d="M505.275,494.416h-4.536v-17.997h9.751c4.78,0,7.114,2.015,7.114,6.102c0,6.056-4.26,6.837-7.94,6.837   h-4.389V494.416L505.275,494.416z M505.275,485.823h3.533c3.102,0,3.869-0.651,3.869-3.302c0-1.726-0.954-2.565-2.969-2.565h-4.434   V485.823L505.275,485.823z"
   id="path4185"
   style="fill:#000000" />
	<path
   fill="#005395"
   d="M550.451,494.399h-5.013l-1.711-3.577h-8.33l-1.812,3.577h-4.218l8.969-17.98h3.506L550.451,494.399z    M537.165,487.257h4.867l-2.374-5.012L537.165,487.257z"
   id="path4187"
   style="fill:#000000" />
	<polygon
   fill="#005395"
   points="581.819,494.416 578.052,494.416 567.433,482.346 567.433,494.416 563.751,494.416    563.751,476.419 568.301,476.419 578.139,487.607 578.139,476.419 581.819,476.419  "
   id="polygon4189"
   style="fill:#000000" />
	<polygon
   fill="#005395"
   points="607.623,494.416 603.001,494.416 603.001,487.837 594.945,476.419 600.522,476.419    605.929,483.911 611.521,476.419 616.026,476.419 607.623,487.866  "
   id="polygon4191"
   style="fill:#000000" />
	<path
   fill="#005395"
   d="M872.676,240.372c5.406,0,9.94,4.26,9.94,9.853c0,5.682-4.534,9.954-9.94,9.954   c-5.419,0-9.982-4.275-9.982-9.954C862.693,244.632,867.257,240.372,872.676,240.372 M872.676,258.729   c4.578,0,8.13-3.666,8.13-8.504c0-4.695-3.552-8.39-8.13-8.39c-4.621,0-8.171,3.694-8.171,8.39   C864.505,255.063,868.055,258.729,872.676,258.729 M877.92,252.182c-0.564,2.563-2.478,4.158-4.926,4.158   c-3.564,0-5.883-2.594-5.883-6.07c0-3.521,2.188-6.028,5.812-6.028c2.52,0,4.563,1.376,4.968,4.029h-1.666   c-0.29-1.479-1.536-2.579-3.29-2.579c-2.607,0-4.025,1.999-4.025,4.534c0,2.492,1.577,4.665,4.085,4.665   c1.754,0,2.984-1.145,3.23-2.709H877.92L877.92,252.182z"
   id="path4193"
   style="fill:#000000" />
</g>
</svg>